<svg width="49" height="32" viewBox="0 0 49 32" fill="none" xmlns="http://www.w3.org/2000/svg">
<rect x="1" y="0.5" width="47" height="31" rx="3.5" fill="white" stroke="#E8ECEF"/>
<path d="M30.7949 6C36.1548 6 40.5 10.395 40.5 15.8164C40.5 21.2379 36.1548 25.6328 30.7949 25.6328C28.392 25.6328 26.1949 24.7473 24.5 23.2842C22.8051 24.7474 20.608 25.6328 18.2051 25.6328C12.8452 25.6328 8.5 21.2379 8.5 15.8164C8.5 10.395 12.8452 6 18.2051 6C20.6077 6.00005 22.8052 6.88474 24.5 8.34766C26.1948 6.88474 28.3922 6.00002 30.7949 6Z" fill="#ED0006"/>
<path d="M30.7949 6C36.1548 6 40.5 10.395 40.5 15.8164C40.5 21.2379 36.1548 25.6328 30.7949 25.6328C28.392 25.6328 26.1949 24.7473 24.5 23.2842C26.5856 21.4837 27.9102 18.8073 27.9102 15.8164C27.9102 12.8253 26.5859 10.1482 24.5 8.34766C26.1948 6.88474 28.3922 6.00002 30.7949 6Z" fill="#F9A000"/>
<path d="M24.4995 8.34766C26.5855 10.1482 27.9097 12.8252 27.9097 15.8164C27.9096 18.8071 26.585 21.4828 24.4995 23.2832C22.4143 21.4828 21.0904 18.8069 21.0903 15.8164C21.0903 12.8255 22.4138 10.1482 24.4995 8.34766Z" fill="#FF5E00"/>
</svg>
