<svg width="76" height="74" viewBox="0 0 76 74" fill="none" xmlns="http://www.w3.org/2000/svg">
<circle cx="38" cy="26" r="25.5" fill="white" stroke="#FAFAFA"/>
<path d="M31.741 23.8082L28.1543 21.06C29.0506 19.251 30.4485 17.724 32.1891 16.6527C33.9297 15.5814 35.9431 15.0088 38.0002 15C40.7664 14.9996 43.4282 16.0319 45.441 17.8857L42.3184 20.9638C41.1245 19.9385 39.5899 19.372 38.0002 19.3698C36.6133 19.379 35.2641 19.812 34.1417 20.6079C33.0192 21.4038 32.1798 22.5229 31.741 23.8082Z" fill="#EA4335"/>
<path d="M45.3708 34.1693C43.3658 35.9891 40.7302 37.0003 37.9934 37C35.9284 36.9866 33.9091 36.4044 32.1674 35.3203C30.4258 34.2362 29.0325 32.6942 28.1475 30.8714L31.7694 28.2055C32.2087 29.4894 33.0487 30.6067 34.1713 31.4003C35.294 32.1939 36.6429 32.624 38.0286 32.6303C39.385 32.6309 40.7078 32.2178 41.8122 31.4485L45.3708 34.1693Z" fill="#34A853"/>
<path d="M31.3616 26.0206C31.3618 26.764 31.4877 27.5022 31.7343 28.2055L28.1476 30.8713C27.3923 29.3461 27 27.6737 27 25.9794C27 24.2851 27.3923 22.6127 28.1476 21.0874L31.7343 23.8357C31.4899 24.5395 31.364 25.2774 31.3616 26.0206Z" fill="#FBBC05"/>
<path d="M49.0001 26.0138C49.0062 27.5446 48.6867 29.0599 48.062 30.4637C47.4374 31.8676 46.521 33.1295 45.3712 34.1693L41.7774 31.421C42.9385 30.6077 43.8092 29.459 44.267 28.1368H38.0781V24.248H48.8665C48.9581 24.8323 49.0028 25.4227 49.0001 26.0138Z" fill="#4285F4"/>
<path d="M10.8845 62.784H17.6765V63.588H10.8845V62.784ZM9.66055 67.44H19.4645V68.268H9.66055V67.44ZM14.0405 67.992H15.0365V72.948H14.0405V67.992ZM17.1965 62.784H18.1805V63.732C18.1805 64.108 18.1725 64.504 18.1565 64.92C18.1485 65.336 18.1165 65.796 18.0605 66.3C18.0045 66.796 17.9085 67.348 17.7725 67.956L16.7765 67.824C16.9925 66.952 17.1165 66.188 17.1485 65.532C17.1805 64.876 17.1965 64.276 17.1965 63.732V62.784ZM21.9476 62.544H28.9316V63.348H21.9476V62.544ZM20.6996 66.12H30.5396V66.924H20.6996V66.12ZM28.2836 62.544H29.2676V63.24C29.2676 63.624 29.2556 64.076 29.2316 64.596C29.2076 65.108 29.1236 65.696 28.9796 66.36L27.9956 66.252C28.1396 65.596 28.2236 65.024 28.2476 64.536C28.2716 64.048 28.2836 63.616 28.2836 63.24V62.544ZM21.8636 68.004H29.2916V70.752H22.8716V72.264H21.8876V69.984H28.3076V68.796H21.8636V68.004ZM21.8876 72.012H29.5676V72.804H21.8876V72.012ZM34.4223 70.764H44.2623V71.592H34.4223V70.764ZM38.8263 68.448H39.8103V71.112H38.8263V68.448ZM35.6223 62.88H43.0383V66.168H36.6303V68.34H35.6463V65.376H42.0543V63.696H35.6223V62.88ZM35.6463 67.92H43.2903V68.736H35.6463V67.92ZM46.5293 63.228H53.5133V64.044H46.5293V63.228ZM45.4613 70.524H55.2653V71.352H45.4613V70.524ZM52.9733 63.228H53.9573V64.32C53.9573 64.776 53.9493 65.264 53.9333 65.784C53.9253 66.296 53.8933 66.864 53.8373 67.488C53.7813 68.112 53.6853 68.816 53.5493 69.6L52.5413 69.492C52.6853 68.756 52.7853 68.08 52.8413 67.464C52.9053 66.848 52.9413 66.28 52.9493 65.76C52.9653 65.24 52.9733 64.76 52.9733 64.32V63.228ZM64.3964 62.088H65.3924V70.008H64.3964V62.088ZM58.4204 71.88H65.7284V72.696H58.4204V71.88ZM58.4204 69.204H59.4164V72.156H58.4204V69.204ZM59.5724 62.844C60.1164 62.844 60.6004 62.956 61.0244 63.18C61.4484 63.404 61.7844 63.72 62.0324 64.128C62.2804 64.528 62.4044 64.988 62.4044 65.508C62.4044 66.028 62.2804 66.492 62.0324 66.9C61.7844 67.3 61.4484 67.616 61.0244 67.848C60.6004 68.072 60.1164 68.184 59.5724 68.184C59.0364 68.184 58.5524 68.072 58.1204 67.848C57.6964 67.616 57.3604 67.3 57.1124 66.9C56.8644 66.492 56.7404 66.028 56.7404 65.508C56.7404 64.988 56.8644 64.528 57.1124 64.128C57.3604 63.72 57.6964 63.404 58.1204 63.18C58.5524 62.956 59.0364 62.844 59.5724 62.844ZM59.5724 63.708C59.2204 63.708 58.9044 63.784 58.6244 63.936C58.3444 64.088 58.1204 64.3 57.9524 64.572C57.7924 64.844 57.7124 65.156 57.7124 65.508C57.7124 65.868 57.7924 66.184 57.9524 66.456C58.1204 66.72 58.3444 66.928 58.6244 67.08C58.9044 67.232 59.2204 67.308 59.5724 67.308C59.9244 67.308 60.2404 67.232 60.5204 67.08C60.8084 66.928 61.0324 66.72 61.1924 66.456C61.3524 66.184 61.4324 65.868 61.4324 65.508C61.4324 65.156 61.3524 64.844 61.1924 64.572C61.0324 64.3 60.8084 64.088 60.5204 63.936C60.2404 63.784 59.9244 63.708 59.5724 63.708Z" fill="#222222"/>
</svg>
