<svg width="300" height="50" viewBox="0 0 300 50" fill="none" xmlns="http://www.w3.org/2000/svg">
  <rect width="300" height="50" rx="8" fill="white" stroke="#E0E0E0" stroke-width="1"/>
  <g>
    <g transform="translate(20,10)">
      <path d="M20.64 10.2045C20.64 9.54364 20.5827 8.90909 20.4764 8.29545H12V12.0545H16.5455C16.3455 13.1364 15.7091 14.0455 14.7818 14.6364V16.8182H17.5091C19.0182 15.4182 20.064 13.0909 20.064 10.2045Z" fill="#4285F4"/>
      <path d="M12 18C14.43 18 16.4364 17.1818 17.5091 16.8182L14.7818 14.6364C14.1818 15.0364 13.3455 15.2727 12.4364 15.2727C10.1273 15.2727 8.21818 13.5636 7.56364 11.4182H4.74545V13.6727C5.80909 15.7818 8.67273 18 12 18Z" fill="#34A853"/>
      <path d="M7.56364 11.4182C7.38182 10.9182 7.27273 10.3818 7.27273 9.81818C7.27273 9.25455 7.38182 8.71818 7.56364 8.21818V5.96364H4.74545C4.27273 6.90909 4 7.90909 4 9C4 10.0909 4.27273 11.0909 4.74545 12.0364L7.56364 11.4182Z" fill="#FBBC05"/>
      <path d="M12.4364 6.72727C13.4182 6.72727 14.2727 7.04545 14.9273 7.65455L17.5636 5.01818C16.4364 3.98182 14.43 3 12.4364 3C8.67273 3 5.80909 5.21818 4.74545 7.96364L7.56364 10.2182C8.21818 8.07273 10.1273 6.72727 12.4364 6.72727Z" fill="#EA4335"/>
    </g>
    <text x="65" y="35" font-family="Arial, sans-serif" font-size="18" fill="#5F6368">Google로 계속하기</text>
  </g>
</svg> 