<svg width="76" height="74" viewBox="0 0 76 74" fill="none" xmlns="http://www.w3.org/2000/svg">
<circle cx="38" cy="26" r="26" fill="#FEE500"/>
<path d="M38.0005 15.8C44.2964 15.8001 49.3999 19.5613 49.3999 24.2004C49.3996 28.8393 44.2962 32.5996 38.0005 32.5998C37.6844 32.5998 37.3712 32.5895 37.0615 32.5704C36.8492 32.5574 36.6372 32.6072 36.456 32.7187L32.6323 35.0726C31.908 35.5185 30.9931 34.914 31.1191 34.0728L31.453 31.8447C31.5169 31.4182 31.2975 31.0023 30.925 30.7848C28.2907 29.2464 26.6003 26.8695 26.6001 24.2004C26.6001 19.5612 31.7044 15.8 38.0005 15.8Z" fill="#191600"/>
<path d="M8.74902 63.204H9.72102C9.72102 63.988 9.64502 64.756 9.49302 65.508C9.34102 66.252 9.08102 66.964 8.71302 67.644C8.34502 68.316 7.84102 68.948 7.20102 69.54C6.56102 70.132 5.75702 70.668 4.78902 71.148L4.23702 70.38C5.10102 69.956 5.82102 69.488 6.39702 68.976C6.97302 68.464 7.43302 67.912 7.77702 67.32C8.12102 66.728 8.36902 66.096 8.52102 65.424C8.67302 64.752 8.74902 64.048 8.74902 63.312V63.204ZM4.83702 63.204H9.34902V64.02H4.83702V63.204ZM8.60502 65.892V66.672L4.44102 67.068L4.28502 66.192L8.60502 65.892ZM11.485 62.076H12.481V72.924H11.485V62.076ZM12.217 66.48H14.209V67.308H12.217V66.48ZM19.7881 63.204H20.7601C20.7601 63.988 20.6841 64.756 20.5321 65.508C20.3801 66.252 20.1201 66.964 19.7521 67.644C19.3841 68.316 18.8801 68.948 18.2401 69.54C17.6001 70.132 16.7961 70.668 15.8281 71.148L15.2761 70.38C16.1401 69.956 16.8601 69.488 17.4361 68.976C18.0121 68.464 18.4721 67.912 18.8161 67.32C19.1601 66.728 19.4081 66.096 19.5601 65.424C19.7121 64.752 19.7881 64.048 19.7881 63.312V63.204ZM15.8761 63.204H20.3881V64.02H15.8761V63.204ZM19.6441 65.892V66.672L15.4801 67.068L15.3241 66.192L19.6441 65.892ZM22.5241 62.076H23.5201V72.924H22.5241V62.076ZM23.2561 66.48H25.2481V67.308H23.2561V66.48ZM30.6231 68.208H31.6071V70.908H30.6231V68.208ZM31.1151 62.784C31.8831 62.784 32.5631 62.904 33.1551 63.144C33.7471 63.376 34.2111 63.704 34.5471 64.128C34.8911 64.552 35.0631 65.052 35.0631 65.628C35.0631 66.204 34.8911 66.708 34.5471 67.14C34.2111 67.564 33.7471 67.892 33.1551 68.124C32.5631 68.356 31.8831 68.472 31.1151 68.472C30.3551 68.472 29.6751 68.356 29.0751 68.124C28.4831 67.892 28.0191 67.564 27.6831 67.14C27.3471 66.708 27.1791 66.204 27.1791 65.628C27.1791 65.052 27.3471 64.552 27.6831 64.128C28.0191 63.704 28.4831 63.376 29.0751 63.144C29.6751 62.904 30.3551 62.784 31.1151 62.784ZM31.1151 63.588C30.5391 63.588 30.0271 63.672 29.5791 63.84C29.1311 64.008 28.7791 64.248 28.5231 64.56C28.2671 64.864 28.1391 65.22 28.1391 65.628C28.1391 66.036 28.2671 66.396 28.5231 66.708C28.7791 67.02 29.1311 67.26 29.5791 67.428C30.0271 67.596 30.5391 67.68 31.1151 67.68C31.6911 67.68 32.2031 67.596 32.6511 67.428C33.0991 67.26 33.4511 67.02 33.7071 66.708C33.9711 66.396 34.1031 66.036 34.1031 65.628C34.1031 65.22 33.9711 64.864 33.7071 64.56C33.4511 64.248 33.0991 64.008 32.6511 63.84C32.2031 63.672 31.6911 63.588 31.1151 63.588ZM26.2191 70.716H36.0591V71.544H26.2191V70.716ZM39.9418 70.764H49.7818V71.592H39.9418V70.764ZM44.3458 68.448H45.3298V71.112H44.3458V68.448ZM41.1418 62.88H48.5578V66.168H42.1498V68.34H41.1658V65.376H47.5738V63.696H41.1418V62.88ZM41.1658 67.92H48.8098V68.736H41.1658V67.92ZM52.0489 63.228H59.0329V64.044H52.0489V63.228ZM50.9809 70.524H60.7849V71.352H50.9809V70.524ZM58.4929 63.228H59.4769V64.32C59.4769 64.776 59.4689 65.264 59.4529 65.784C59.4449 66.296 59.4129 66.864 59.3569 67.488C59.3009 68.112 59.2049 68.816 59.0689 69.6L58.0609 69.492C58.2049 68.756 58.3049 68.08 58.3609 67.464C58.4249 66.848 58.4609 66.28 58.4689 65.76C58.4849 65.24 58.4929 64.76 58.4929 64.32V63.228ZM69.9159 62.088H70.9119V70.008H69.9159V62.088ZM63.9399 71.88H71.2479V72.696H63.9399V71.88ZM63.9399 69.204H64.9359V72.156H63.9399V69.204ZM65.0919 62.844C65.6359 62.844 66.1199 62.956 66.5439 63.18C66.9679 63.404 67.3039 63.72 67.5519 64.128C67.7999 64.528 67.9239 64.988 67.9239 65.508C67.9239 66.028 67.7999 66.492 67.5519 66.9C67.3039 67.3 66.9679 67.616 66.5439 67.848C66.1199 68.072 65.6359 68.184 65.0919 68.184C64.5559 68.184 64.0719 68.072 63.6399 67.848C63.2159 67.616 62.8799 67.3 62.6319 66.9C62.3839 66.492 62.2599 66.028 62.2599 65.508C62.2599 64.988 62.3839 64.528 62.6319 64.128C62.8799 63.72 63.2159 63.404 63.6399 63.18C64.0719 62.956 64.5559 62.844 65.0919 62.844ZM65.0919 63.708C64.7399 63.708 64.4239 63.784 64.1439 63.936C63.8639 64.088 63.6399 64.3 63.4719 64.572C63.3119 64.844 63.2319 65.156 63.2319 65.508C63.2319 65.868 63.3119 66.184 63.4719 66.456C63.6399 66.72 63.8639 66.928 64.1439 67.08C64.4239 67.232 64.7399 67.308 65.0919 67.308C65.4439 67.308 65.7599 67.232 66.0399 67.08C66.3279 66.928 66.5519 66.72 66.7119 66.456C66.8719 66.184 66.9519 65.868 66.9519 65.508C66.9519 65.156 66.8719 64.844 66.7119 64.572C66.5519 64.3 66.3279 64.088 66.0399 63.936C65.7599 63.784 65.4439 63.708 65.0919 63.708Z" fill="#E5E5E5"/>
</svg>
