<svg width="24" height="24" viewBox="0 0 24 24" fill="none" xmlns="http://www.w3.org/2000/svg">
<path d="M9.1716 14.8286C8.80016 14.4572 8.50551 14.0162 8.30449 13.5309C8.10347 13.0456 8 12.5254 8 12.0001C8 11.4748 8.10347 10.9546 8.30449 10.4693C8.50551 9.98401 8.80016 9.54305 9.1716 9.1716C9.54305 8.80016 9.98401 8.50551 10.4693 8.30449C10.9546 8.10347 11.4748 8 12.0001 8C12.5254 8 13.0456 8.10347 13.5309 8.30449C14.0162 8.50551 14.4572 8.80016 14.8286 9.1716" stroke="currentColor" stroke-width="1.5" stroke-linecap="round" stroke-linejoin="round"/>
<path d="M11.294 12.707L11.468 12.954C12.4572 14.2915 13.863 15.2621 15.4641 15.7133C17.0653 16.1644 18.7711 16.0704 20.313 15.446C19.7455 16.8115 18.8504 18.0161 17.7066 18.9534C16.5629 19.8906 15.2058 20.5317 13.7555 20.8197C12.3051 21.1078 10.8061 21.0341 9.39095 20.6051C7.97584 20.1761 6.68824 19.405 5.642 18.36M3 12H4M12 3V4M5.6 5.6L6.3 6.3M3 21L21 3" stroke="currentColor" stroke-width="1.5" stroke-linecap="round" stroke-linejoin="round"/>
</svg>
