<svg width="24" height="24" viewBox="0 0 24 24" fill="none" xmlns="http://www.w3.org/2000/svg">
<path d="M13.1903 8.6977C13.6393 8.91219 14.0601 9.20539 14.432 9.5773C16.1893 11.3347 16.1893 14.1839 14.432 15.9413L9.93198 20.4413C8.17462 22.1986 5.32538 22.1986 3.56802 20.4413C1.81066 18.6839 1.81066 15.8347 3.56802 14.0773L5.32499 12.3203M18.675 11.6982L20.432 9.94126C22.1893 8.1839 22.1893 5.33466 20.432 3.5773C18.6746 1.81994 15.8254 1.81994 14.068 3.5773L9.56802 8.0773C7.81066 9.83466 7.81066 12.6839 9.56802 14.4413C9.93992 14.8132 10.3607 15.1064 10.8097 15.3209" stroke="currentColor" stroke-width="1.5" stroke-linecap="round" stroke-linejoin="round"/>
</svg>
