<svg width="76" height="74" viewBox="0 0 76 74" fill="none" xmlns="http://www.w3.org/2000/svg">
<circle cx="38" cy="26" r="26" fill="#03C759"/>
<path d="M29 35V17H35.4286L40.5714 26V17H47V35H40.5714L35.4286 26V35H29Z" fill="white"/>
<path d="M4.65702 63.24H5.65302V69.6H4.65702V63.24ZM4.65702 69.324H5.35302C5.98502 69.324 6.60502 69.304 7.21302 69.264C7.82902 69.216 8.47702 69.12 9.15702 68.976L9.30102 69.828C8.58902 69.98 7.91702 70.08 7.28502 70.128C6.66102 70.168 6.01702 70.188 5.35302 70.188H4.65702V69.324ZM12.409 62.076H13.369V72.936H12.409V62.076ZM7.68102 65.724H10.381V66.54H7.68102V65.724ZM10.105 62.34H11.053V72.384H10.105V62.34ZM23.0641 62.076H24.0601V72.948H23.0641V62.076ZM18.3361 62.916C18.8721 62.916 19.3441 63.072 19.7521 63.384C20.1681 63.688 20.4921 64.124 20.7241 64.692C20.9641 65.26 21.0841 65.928 21.0841 66.696C21.0841 67.464 20.9641 68.132 20.7241 68.7C20.4921 69.268 20.1681 69.708 19.7521 70.02C19.3441 70.332 18.8721 70.488 18.3361 70.488C17.8001 70.488 17.3241 70.332 16.9081 70.02C16.4921 69.708 16.1641 69.268 15.9241 68.7C15.6921 68.132 15.5761 67.464 15.5761 66.696C15.5761 65.928 15.6921 65.26 15.9241 64.692C16.1641 64.124 16.4921 63.688 16.9081 63.384C17.3241 63.072 17.8001 62.916 18.3361 62.916ZM18.3361 63.804C17.9761 63.804 17.6601 63.924 17.3881 64.164C17.1241 64.396 16.9161 64.732 16.7641 65.172C16.6121 65.604 16.5361 66.112 16.5361 66.696C16.5361 67.28 16.6121 67.792 16.7641 68.232C16.9161 68.664 17.1241 69 17.3881 69.24C17.6601 69.48 17.9761 69.6 18.3361 69.6C18.6881 69.6 18.9961 69.48 19.2601 69.24C19.5321 69 19.7441 68.664 19.8961 68.232C20.0481 67.792 20.1241 67.28 20.1241 66.696C20.1241 66.112 20.0481 65.604 19.8961 65.172C19.7441 64.732 19.5321 64.396 19.2601 64.164C18.9961 63.924 18.6881 63.804 18.3361 63.804ZM34.1631 62.076H35.1471V72.948H34.1631V62.076ZM31.3071 66.108H34.4511V66.924H31.3071V66.108ZM26.6511 62.928H27.6471V65.748H30.6591V62.928H31.6311V70.212H26.6511V62.928ZM27.6471 66.54V69.396H30.6591V66.54H27.6471ZM39.9418 70.764H49.7818V71.592H39.9418V70.764ZM44.3458 68.448H45.3298V71.112H44.3458V68.448ZM41.1418 62.88H48.5578V66.168H42.1498V68.34H41.1658V65.376H47.5738V63.696H41.1418V62.88ZM41.1658 67.92H48.8098V68.736H41.1658V67.92ZM52.0489 63.228H59.0329V64.044H52.0489V63.228ZM50.9809 70.524H60.7849V71.352H50.9809V70.524ZM58.4929 63.228H59.4769V64.32C59.4769 64.776 59.4689 65.264 59.4529 65.784C59.4449 66.296 59.4129 66.864 59.3569 67.488C59.3009 68.112 59.2049 68.816 59.0689 69.6L58.0609 69.492C58.2049 68.756 58.3049 68.08 58.3609 67.464C58.4249 66.848 58.4609 66.28 58.4689 65.76C58.4849 65.24 58.4929 64.76 58.4929 64.32V63.228ZM69.9159 62.088H70.9119V70.008H69.9159V62.088ZM63.9399 71.88H71.2479V72.696H63.9399V71.88ZM63.9399 69.204H64.9359V72.156H63.9399V69.204ZM65.0919 62.844C65.6359 62.844 66.1199 62.956 66.5439 63.18C66.9679 63.404 67.3039 63.72 67.5519 64.128C67.7999 64.528 67.9239 64.988 67.9239 65.508C67.9239 66.028 67.7999 66.492 67.5519 66.9C67.3039 67.3 66.9679 67.616 66.5439 67.848C66.1199 68.072 65.6359 68.184 65.0919 68.184C64.5559 68.184 64.0719 68.072 63.6399 67.848C63.2159 67.616 62.8799 67.3 62.6319 66.9C62.3839 66.492 62.2599 66.028 62.2599 65.508C62.2599 64.988 62.3839 64.528 62.6319 64.128C62.8799 63.72 63.2159 63.404 63.6399 63.18C64.0719 62.956 64.5559 62.844 65.0919 62.844ZM65.0919 63.708C64.7399 63.708 64.4239 63.784 64.1439 63.936C63.8639 64.088 63.6399 64.3 63.4719 64.572C63.3119 64.844 63.2319 65.156 63.2319 65.508C63.2319 65.868 63.3119 66.184 63.4719 66.456C63.6399 66.72 63.8639 66.928 64.1439 67.08C64.4239 67.232 64.7399 67.308 65.0919 67.308C65.4439 67.308 65.7599 67.232 66.0399 67.08C66.3279 66.928 66.5519 66.72 66.7119 66.456C66.8719 66.184 66.9519 65.868 66.9519 65.508C66.9519 65.156 66.8719 64.844 66.7119 64.572C66.5519 64.3 66.3279 64.088 66.0399 63.936C65.7599 63.784 65.4439 63.708 65.0919 63.708Z" fill="#222222"/>
</svg>
