<svg width="24" height="24" viewBox="0 0 24 24" fill="none" xmlns="http://www.w3.org/2000/svg">
<path d="M15.1171 2.47211L2.84522 3.36086C2.84146 3.36113 2.83772 3.36144 2.83397 3.3618C2.8277 3.36261 2.82145 3.36355 2.81522 3.36461C2.80359 3.36606 2.79202 3.36794 2.78053 3.37024C2.77582 3.37142 2.77113 3.37266 2.76646 3.37398C2.76113 3.37515 2.75582 3.37639 2.75053 3.37773C2.73883 3.38104 2.72726 3.38479 2.71584 3.38898C2.70826 3.39192 2.70076 3.39505 2.69334 3.39836C2.68894 3.40017 2.68456 3.40205 2.68022 3.40398C2.65501 3.41562 2.63085 3.42942 2.60803 3.44524C2.60393 3.44767 2.59987 3.45017 2.59584 3.45274C2.58585 3.46017 2.57616 3.46799 2.56678 3.47618C2.56489 3.47803 2.56302 3.47991 2.56115 3.4818C2.5531 3.48873 2.54529 3.49592 2.53772 3.50336C2.53291 3.50857 2.52822 3.51389 2.52365 3.5193C2.51651 3.5272 2.50963 3.53532 2.50303 3.54367C2.50049 3.54677 2.49799 3.54989 2.49553 3.55305C2.48828 3.56278 2.4814 3.57279 2.4749 3.58305C2.47299 3.58615 2.47112 3.58928 2.46928 3.59242C2.46296 3.60251 2.45702 3.61283 2.45146 3.62336C2.44921 3.6277 2.44702 3.63208 2.4449 3.63648C2.43977 3.64786 2.43508 3.65943 2.43084 3.67117C2.43021 3.67242 2.42958 3.67367 2.42896 3.67492C2.41928 3.70203 2.41207 3.72996 2.4074 3.75836C2.40638 3.76334 2.40545 3.76834 2.40459 3.77336C2.40282 3.78612 2.40157 3.79894 2.40084 3.8118C2.40084 3.81242 2.40084 3.81305 2.40084 3.81367C2.40029 3.82241 2.39997 3.83117 2.3999 3.83993V16.1943C2.3999 16.6866 2.55117 17.168 2.83397 17.5715C2.84136 17.5821 2.84918 17.5924 2.8574 17.6024L5.82084 21.1687C5.84944 21.2201 5.88726 21.2659 5.9324 21.3037L6.11991 21.5287C6.14371 21.5573 6.17077 21.5831 6.20053 21.6056C6.48235 21.879 6.87215 22.0404 7.29272 22.0134L20.2527 21.1771C21.0059 21.1284 21.5999 20.4945 21.5999 19.7399V7.26367C21.5999 6.82041 21.3914 6.42745 21.074 6.16305C21.0515 6.13733 21.0264 6.11406 20.999 6.09367L20.7665 5.92211C20.7374 5.89442 20.705 5.87048 20.6699 5.85086L16.7155 2.9343C16.2551 2.59456 15.6876 2.43072 15.1171 2.47211ZM15.1865 3.4293C15.5289 3.40445 15.8696 3.50318 16.1455 3.7068L19.0883 5.87805L7.07616 6.66461C6.66258 6.69161 6.258 6.53858 5.96428 6.24555H5.96335L3.96178 4.24305L15.1865 3.4293ZM3.35991 4.99867L5.28553 6.9243L5.75991 7.39867V19.5927L3.61866 17.0155C3.45107 16.7747 3.35991 16.4885 3.35991 16.1943V4.99867ZM20.129 6.78461C20.4127 6.7664 20.6399 6.97968 20.6399 7.26368V19.7399C20.6399 19.9972 20.4476 20.2024 20.1908 20.219L7.23084 21.0552C7.08992 21.0643 6.96296 21.016 6.87084 20.9306C6.87053 20.9302 6.87022 20.9299 6.86991 20.9296L6.86897 20.9287C6.86701 20.9268 6.86621 20.924 6.86428 20.9221C6.86243 20.9196 6.86056 20.9171 6.85866 20.9146C6.77378 20.8288 6.71991 20.7117 6.71991 20.5762V8.09993C6.71991 7.84195 6.9119 7.63749 7.16897 7.62087L20.129 6.78461ZM18.478 9.11993L16.0424 9.25493C15.6709 9.29333 15.238 9.57017 15.238 10.0199L16.318 10.1099V15.2418L12.583 9.48087L9.78366 9.63837C9.25998 9.67677 9.11709 10.066 9.11709 10.5609H10.1971V18.0318C10.1971 18.0318 9.69199 18.1681 9.52303 18.2118C9.16399 18.3044 9.11709 18.6167 9.11709 18.8418C9.11709 18.8418 10.9183 18.7514 11.7468 18.689C12.6871 18.617 12.718 17.9868 12.718 17.9868L11.638 17.7618V12.2259C11.638 12.2259 14.3835 16.6369 15.223 17.9334C15.6181 18.5425 15.913 18.6618 16.4324 18.6618C16.8586 18.6618 17.2617 18.5359 17.7571 18.2681V9.93462C17.7571 9.93462 17.8483 9.92977 18.1358 9.83713C18.4637 9.73105 18.478 9.43481 18.478 9.11993Z" fill="white"/>
</svg>
