<svg width="24" height="25" viewBox="0 0 24 25" fill="none" xmlns="http://www.w3.org/2000/svg">
<path fill-rule="evenodd" clip-rule="evenodd" d="M17.501 8.696C15.628 5.45 11.493 4.338 8.26697 6.202C7.0197 6.91944 6.03654 8.01937 5.46297 9.339C5.41233 9.46205 5.33765 9.57376 5.24329 9.66758C5.14893 9.7614 5.0368 9.83544 4.91346 9.88537C4.79013 9.93531 4.65806 9.96012 4.52501 9.95836C4.39196 9.95661 4.2606 9.92832 4.13862 9.87515C4.01665 9.82198 3.90651 9.745 3.81466 9.64872C3.72281 9.55245 3.6511 9.43881 3.60373 9.31446C3.55635 9.19012 3.53428 9.05757 3.53878 8.92458C3.54329 8.7916 3.57429 8.66085 3.62997 8.54C4.37432 6.82831 5.64943 5.40139 7.26697 4.47C11.455 2.05 16.811 3.499 19.233 7.695C19.8201 8.71085 20.1982 9.83387 20.345 10.998L18.361 11.248C18.2473 10.3485 17.9549 9.48083 17.501 8.696Z" fill="currentColor"/>
<path fill-rule="evenodd" clip-rule="evenodd" d="M21.613 8.08081C22.043 8.28081 22.229 8.79081 22.029 9.21881L20.802 11.8538C20.7415 11.9831 20.6562 12.0992 20.5508 12.1954C20.4454 12.2917 20.3221 12.3663 20.1879 12.4148C20.0537 12.4634 19.9112 12.485 19.7687 12.4785C19.6261 12.472 19.4862 12.4374 19.357 12.3768L16.721 11.1408C16.616 11.095 16.5213 11.0286 16.4424 10.9456C16.3635 10.8626 16.3021 10.7646 16.2617 10.6574C16.2214 10.5503 16.2029 10.4361 16.2074 10.3217C16.2119 10.2072 16.2393 10.0949 16.2879 9.99119C16.3366 9.88752 16.4055 9.79465 16.4907 9.71808C16.5758 9.6415 16.6755 9.58277 16.7837 9.54536C16.892 9.50794 17.0066 9.4926 17.1209 9.50023C17.2351 9.50787 17.3467 9.53833 17.449 9.58981L19.513 10.5588L20.473 8.49481C20.5206 8.39272 20.5879 8.30102 20.6709 8.22494C20.754 8.14887 20.8513 8.08992 20.9572 8.05147C21.0631 8.01302 21.1755 7.99582 21.288 8.00086C21.4005 8.00589 21.511 8.03306 21.613 8.08081ZM6.844 16.3958C8.717 19.6418 12.852 20.7538 16.078 18.8898C17.3253 18.1724 18.3084 17.0724 18.882 15.7528C18.9326 15.6298 19.0073 15.5181 19.1017 15.4242C19.196 15.3304 19.3082 15.2564 19.4315 15.2064C19.5548 15.1565 19.6869 15.1317 19.82 15.1334C19.953 15.1352 20.0844 15.1635 20.2063 15.2167C20.3283 15.2698 20.4385 15.3468 20.5303 15.4431C20.6222 15.5394 20.6939 15.653 20.7412 15.7773C20.7886 15.9017 20.8107 16.0342 20.8062 16.1672C20.8017 16.3002 20.7707 16.431 20.715 16.5518C19.9707 18.2635 18.6955 19.6904 17.078 20.6218C12.89 23.0418 7.533 21.5928 5.112 17.3968C4.52484 16.381 4.14676 15.2579 4 14.0938L5.984 13.8438C6.094 14.7168 6.374 15.5838 6.844 16.3958Z" fill="currentColor"/>
<path fill-rule="evenodd" clip-rule="evenodd" d="M2.73202 17.0111C2.52599 16.9154 2.36643 16.7417 2.28842 16.5283C2.21041 16.3149 2.22034 16.0792 2.31602 15.8732L3.54302 13.2381C3.60349 13.1089 3.68886 12.9928 3.79423 12.8965C3.8996 12.8003 4.02291 12.7257 4.15711 12.6771C4.29132 12.6286 4.43378 12.6069 4.57635 12.6134C4.71892 12.62 4.85881 12.6545 4.98802 12.7152L7.62302 13.9512C7.72889 13.9963 7.82459 14.0623 7.9044 14.1452C7.98421 14.2281 8.0465 14.3263 8.08755 14.4338C8.12861 14.5413 8.14758 14.656 8.14335 14.771C8.13912 14.886 8.11176 14.999 8.06291 15.1032C8.01407 15.2074 7.94473 15.3007 7.85904 15.3776C7.77335 15.4544 7.67306 15.5132 7.56416 15.5504C7.45526 15.5877 7.33997 15.6026 7.22518 15.5943C7.11039 15.586 6.99844 15.5546 6.89602 15.5021L4.83202 14.5331L3.87202 16.5972C3.82441 16.6992 3.75715 16.7909 3.67407 16.867C3.59099 16.9431 3.49373 17.002 3.38785 17.0405C3.28197 17.0789 3.16955 17.0961 3.05701 17.0911C2.94448 17.0861 2.83404 17.0589 2.73202 17.0111Z" fill="currentColor"/>
</svg>
