<svg width="24" height="24" viewBox="0 0 24 24" fill="none" xmlns="http://www.w3.org/2000/svg">
<path d="M18 17.5H6V10.5C6 7.1865 8.6865 4.5 12 4.5C15.3135 4.5 18 7.1865 18 10.5V17.5Z" stroke="currentColor" stroke-width="1.5" stroke-linejoin="round"/>
<path d="M4 21H20Z" fill="#FF0000" fill-opacity="0.67"/>
<path d="M4 21H20" stroke="currentColor" stroke-width="1.5" stroke-linecap="round" stroke-linejoin="round"/>
<path d="M12.75 8.75V11.25C12.75 11.4489 12.671 11.6397 12.5303 11.7803C12.3897 11.921 12.1989 12 12 12C11.8011 12 11.6103 11.921 11.4697 11.7803C11.329 11.6397 11.25 11.4489 11.25 11.25V8.75C11.25 8.55109 11.329 8.36032 11.4697 8.21967C11.6103 8.07902 11.8011 8 12 8C12.1989 8 12.3897 8.07902 12.5303 8.21967C12.671 8.36032 12.75 8.55109 12.75 8.75ZM13 14C13 14.2652 12.8946 14.5196 12.7071 14.7071C12.5196 14.8946 12.2652 15 12 15C11.7348 15 11.4804 14.8946 11.2929 14.7071C11.1054 14.5196 11 14.2652 11 14C11 13.7348 11.1054 13.4804 11.2929 13.2929C11.4804 13.1054 11.7348 13 12 13C12.2652 13 12.5196 13.1054 12.7071 13.2929C12.8946 13.4804 13 13.7348 13 14Z" fill="currentColor"/>
</svg>
